<svg width="32" height="32" viewBox="0 0 32 32" fill="none" xmlns="http://www.w3.org/2000/svg">
<path d="M0 6C0 2.68629 2.68629 0 6 0H26C29.3137 0 32 2.68629 32 6V26C32 29.3137 29.3137 32 26 32H6C2.68629 32 0 29.3137 0 26V6Z" fill="#262626"/>
<path d="M25.5861 15.8525L16.499 7.19713C16.4336 7.13464 16.3559 7.08506 16.2703 7.05124C16.1847 7.01741 16.093 7 16.0004 7C15.9078 7 15.8161 7.01741 15.7305 7.05124C15.645 7.08506 15.5673 7.13464 15.5018 7.19713L6.41475 15.8525C6.15002 16.1049 6 16.4476 6 16.8051C6 17.5474 6.63316 18.151 7.41193 18.151H8.36939V24.3271C8.36939 24.6993 8.68487 25 9.07535 25H14.5885V20.2896H17.0594V25H22.9255C23.316 25 23.6314 24.6993 23.6314 24.3271V18.151H24.5889C24.9639 18.151 25.3235 18.0101 25.5883 17.7556C26.1376 17.2299 26.1376 16.3782 25.5861 15.8525Z" fill="white"/>
</svg>
